<svg preserveAspectRatio="none" width="100%" height="100%" overflow="visible" style="display: block;" viewBox="0 0 90 90" fill="none" xmlns="http://www.w3.org/2000/svg">
<g id="circle-lock-01">
<path id="Union" d="M45.1562 3.59342C56.6334 3.59342 65.9373 12.8977 65.9375 24.3747V34.3971C71.7125 39.8908 75.3124 47.6499 75.3125 56.2497C75.3125 72.9045 61.8111 86.4059 45.1562 86.4059C28.5016 86.4058 15 72.9044 15 56.2497C15.0001 47.6499 18.5999 39.8908 24.375 34.3971V24.3747C24.3751 12.8978 33.6793 3.59359 45.1562 3.59342ZM45.1562 51.4059C42.4812 51.4061 40.3127 53.5747 40.3125 56.2497C40.3125 58.9248 42.4811 61.0933 45.1562 61.0934C47.8315 61.0934 50 58.9249 50 56.2497C49.9998 53.5746 47.8314 51.4059 45.1562 51.4059ZM45.1562 11.4059C37.994 11.4061 32.1876 17.2125 32.1875 24.3747V29.0173C36.116 27.143 40.5135 26.0935 45.1562 26.0934C49.799 26.0934 54.1965 27.143 58.125 29.0173V24.3747C58.1248 17.2124 52.3186 11.4059 45.1562 11.4059Z" fill="#0088FF"/>
</g>
</svg>
